<?xml version="1.0" encoding="iso-8859-1"?>
<!-- Generator: Adobe Illustrator 19.0.0, SVG Export Plug-In . SVG Version: 6.00 Build 0)  -->
<svg version="1.1" id="Layer_1" xmlns="http://www.w3.org/2000/svg" xmlns:xlink="http://www.w3.org/1999/xlink" x="0px" y="0px"
	 viewBox="0 0 512 512" style="enable-background:new 0 0 512 512;" xml:space="preserve">
<g style="enable-background:new    ;">
	<polygon style="fill:#FF6342;" points="224.978,344.819 224.96,350.974 142.683,398.788 59.867,350.974 59.884,344.82 
		142.162,297.005 	"/>
	<polygon style="fill:#FF3502;" points="224.978,344.819 224.96,350.974 142.683,398.788 142.7,392.634 	"/>
	<polygon style="fill:#FF5023;" points="142.7,392.634 142.683,398.788 59.867,350.974 59.884,344.82 	"/>
	<polygon style="fill:#FF6342;" points="224.978,311.818 224.96,317.973 142.683,365.787 59.867,317.974 59.884,311.819 
		142.162,264.004 	"/>
	<polygon style="fill:#FF3502;" points="224.978,311.818 224.96,317.973 142.683,365.787 142.7,359.633 	"/>
	<polygon style="fill:#FF5023;" points="142.7,359.633 142.683,365.787 59.867,317.974 59.884,311.819 	"/>
	<polygon style="fill:#FEBCAC;" points="224.978,278.818 224.96,284.972 142.683,332.787 59.867,284.973 59.884,278.819 
		142.162,231.004 	"/>
	<polygon style="fill:#FF7956;" points="224.978,278.818 224.96,284.972 142.683,332.787 142.7,326.633 	"/>
	<polygon style="fill:#FF9478;" points="142.7,326.633 142.683,332.787 59.867,284.973 59.884,278.819 	"/>
	<polygon style="fill:#FEBCAC;" points="224.978,245.817 224.96,251.971 142.683,299.786 59.867,251.972 59.884,245.818 
		142.162,198.003 	"/>
	<polygon style="fill:#FF7956;" points="224.978,245.817 224.96,251.971 142.683,299.786 142.7,293.632 	"/>
	<polygon style="fill:#FF9478;" points="142.7,293.632 142.683,299.786 59.867,251.972 59.884,245.818 	"/>
	<polygon style="fill:#FEBCAC;" points="224.978,212.817 224.96,218.971 142.683,266.786 59.867,218.972 59.884,212.818 
		142.162,165.003 	"/>
	<polygon style="fill:#FF7956;" points="224.978,212.817 224.96,218.971 142.683,266.786 142.7,260.631 	"/>
	<polygon style="fill:#FF9478;" points="142.7,260.631 142.683,266.786 59.867,218.972 59.884,212.818 	"/>
	<polygon style="fill:#FEBCAC;" points="224.978,179.816 224.96,185.97 142.683,233.785 59.867,185.971 59.884,179.817 
		142.162,132.002 	"/>
	<polygon style="fill:#FF7956;" points="224.978,179.816 224.96,185.97 142.683,233.785 142.7,227.631 	"/>
	<polygon style="fill:#FF9478;" points="142.7,227.631 142.683,233.785 59.867,185.971 59.884,179.817 	"/>
	<polygon style="fill:#FEBCAC;" points="224.978,146.815 224.96,152.97 142.683,200.785 59.867,152.971 59.884,146.817 
		142.162,99.002 	"/>
	<polygon style="fill:#FF7956;" points="224.978,146.815 224.96,152.97 142.683,200.785 142.7,194.629 	"/>
	<polygon style="fill:#FF9478;" points="142.7,194.629 142.683,200.785 59.867,152.971 59.884,146.817 	"/>
	<polygon style="fill:#FEBCAC;" points="224.978,113.815 224.96,119.969 142.683,167.784 59.867,119.97 59.884,113.816 
		142.162,66.001 	"/>
	<polygon style="fill:#FF7956;" points="224.978,113.815 224.96,119.969 142.683,167.784 142.7,161.629 	"/>
	<polygon style="fill:#FF9478;" points="142.7,161.629 142.683,167.784 59.867,119.97 59.884,113.816 	"/>
	<polygon style="fill:#FEBCAC;" points="224.978,80.814 224.96,86.969 142.683,134.784 59.867,86.97 59.884,80.815 142.162,33.001 	
		"/>
	<polygon style="fill:#FF7956;" points="224.978,80.814 224.96,86.969 142.683,134.784 142.7,128.628 	"/>
	<polygon style="fill:#FF9478;" points="142.7,128.628 142.683,134.784 59.867,86.97 59.884,80.815 	"/>
	<polygon style="fill:#FEBCAC;" points="224.978,47.814 224.96,53.968 142.683,101.783 59.867,53.969 59.884,47.815 142.162,0 	"/>
	<polygon style="fill:#FF7956;" points="224.978,47.814 224.96,53.968 142.683,101.783 142.7,95.628 	"/>
	<polygon style="fill:#FF9478;" points="142.7,95.628 142.683,101.783 59.867,53.969 59.884,47.815 	"/>
	<polygon style="fill:#FFA834;" points="338.556,401.425 338.538,407.58 256.261,455.395 173.444,407.581 173.462,401.425 
		255.739,353.611 	"/>
	<polygon style="fill:#F18700;" points="338.556,401.425 338.538,407.58 256.261,455.395 256.277,449.239 	"/>
	<polygon style="fill:#FF9911;" points="256.277,449.239 256.261,455.395 173.444,407.581 173.462,401.425 	"/>
	<polygon style="fill:#FFA834;" points="338.556,368.425 338.538,374.579 256.261,422.393 173.444,374.58 173.462,368.425 
		255.739,320.611 	"/>
	<polygon style="fill:#F18700;" points="338.556,368.425 338.538,374.579 256.261,422.393 256.277,416.239 	"/>
	<polygon style="fill:#FF9911;" points="256.277,416.239 256.261,422.393 173.444,374.58 173.462,368.425 	"/>
	<polygon style="fill:#FFA834;" points="338.556,335.424 338.538,341.579 256.261,389.392 173.444,341.58 173.462,335.424 
		255.739,287.61 	"/>
	<polygon style="fill:#F18700;" points="338.556,335.424 338.538,341.579 256.261,389.392 256.277,383.238 	"/>
	<polygon style="fill:#FF9911;" points="256.277,383.238 256.261,389.392 173.444,341.58 173.462,335.424 	"/>
	<polygon style="fill:#FFA834;" points="338.556,302.424 338.538,308.578 256.261,356.392 173.444,308.579 173.462,302.424 
		255.739,254.61 	"/>
	<polygon style="fill:#F18700;" points="338.556,302.424 338.538,308.578 256.261,356.392 256.277,350.237 	"/>
	<polygon style="fill:#FF9911;" points="256.277,350.237 256.261,356.392 173.444,308.579 173.462,302.424 	"/>
	<polygon style="fill:#FEDAAA;" points="338.556,269.422 338.538,275.577 256.261,323.391 173.444,275.578 173.462,269.423 
		255.739,221.609 	"/>
	<polygon style="fill:#FFB657;" points="338.556,269.422 338.538,275.577 256.261,323.391 256.277,317.237 	"/>
	<polygon style="fill:#FEC377;" points="256.277,317.237 256.261,323.391 173.444,275.578 173.462,269.423 	"/>
	<polygon style="fill:#FEDAAA;" points="338.556,236.422 338.538,242.577 256.261,290.391 173.444,242.578 173.462,236.423 
		255.739,188.609 	"/>
	<polygon style="fill:#FFB657;" points="338.556,236.422 338.538,242.577 256.261,290.391 256.277,284.236 	"/>
	<polygon style="fill:#FEC377;" points="256.277,284.236 256.261,290.391 173.444,242.578 173.462,236.423 	"/>
	<polygon style="fill:#FEDAAA;" points="338.556,203.421 338.538,209.576 256.261,257.39 173.444,209.576 173.462,203.422 
		255.739,155.608 	"/>
	<polygon style="fill:#FFB657;" points="338.556,203.421 338.538,209.576 256.261,257.39 256.277,251.236 	"/>
	<polygon style="fill:#FEC377;" points="256.277,251.236 256.261,257.39 173.444,209.576 173.462,203.422 	"/>
	<polygon style="fill:#FEDAAA;" points="338.556,170.42 338.538,176.576 256.261,224.39 173.444,176.576 173.462,170.421 
		255.739,122.608 	"/>
	<polygon style="fill:#FFB657;" points="338.556,170.42 338.538,176.576 256.261,224.39 256.277,218.235 	"/>
	<polygon style="fill:#FEC377;" points="256.277,218.235 256.261,224.39 173.444,176.576 173.462,170.421 	"/>
	<polygon style="fill:#FEDAAA;" points="338.556,137.42 338.538,143.575 256.261,191.389 173.444,143.575 173.462,137.421 
		255.739,89.607 	"/>
	<polygon style="fill:#FFB657;" points="338.556,137.42 338.538,143.575 256.261,191.389 256.277,185.235 	"/>
	<polygon style="fill:#FEC377;" points="256.277,185.235 256.261,191.389 173.444,143.575 173.462,137.421 	"/>
	<polygon style="fill:#FEDAAA;" points="338.556,104.419 338.538,110.575 256.261,158.389 173.444,110.575 173.462,104.42 
		255.739,56.605 	"/>
	<polygon style="fill:#FFB657;" points="338.556,104.419 338.538,110.575 256.261,158.389 256.277,152.234 	"/>
	<polygon style="fill:#FEC377;" points="256.277,152.234 256.261,158.389 173.444,110.575 173.462,104.42 	"/>
	<polygon style="fill:#A258CB;" points="452.133,458.031 452.116,464.185 369.838,512 287.022,464.186 287.04,458.032 
		369.317,410.217 	"/>
	<polygon style="fill:#7F33AD;" points="452.133,458.031 452.116,464.185 369.838,512 369.855,505.846 	"/>
	<polygon style="fill:#943EC7;" points="369.855,505.846 369.838,512 287.022,464.186 287.04,458.032 	"/>
	<polygon style="fill:#A258CB;" points="452.133,425.03 452.116,431.185 369.838,478.999 287.022,431.186 287.04,425.031 
		369.317,377.216 	"/>
	<polygon style="fill:#7F33AD;" points="452.133,425.03 452.116,431.185 369.838,478.999 369.855,472.845 	"/>
	<polygon style="fill:#943EC7;" points="369.855,472.845 369.838,478.999 287.022,431.186 287.04,425.031 	"/>
	<polygon style="fill:#A258CB;" points="452.133,392.03 452.116,398.184 369.838,445.999 287.022,398.185 287.04,392.031 
		369.317,344.216 	"/>
	<polygon style="fill:#7F33AD;" points="452.133,392.03 452.116,398.184 369.838,445.999 369.855,439.845 	"/>
	<polygon style="fill:#943EC7;" points="369.855,439.845 369.838,445.999 287.022,398.185 287.04,392.031 	"/>
	<polygon style="fill:#A258CB;" points="452.133,359.029 452.116,365.184 369.838,412.998 287.022,365.185 287.04,359.03 
		369.317,311.215 	"/>
	<polygon style="fill:#7F33AD;" points="452.133,359.029 452.116,365.184 369.838,412.998 369.855,406.844 	"/>
	<polygon style="fill:#943EC7;" points="369.855,406.844 369.838,412.998 287.022,365.185 287.04,359.03 	"/>
	<polygon style="fill:#A258CB;" points="452.133,326.029 452.116,332.183 369.838,379.998 287.022,332.184 287.04,326.03 
		369.317,278.215 	"/>
	<polygon style="fill:#7F33AD;" points="452.133,326.029 452.116,332.183 369.838,379.998 369.855,373.843 	"/>
	<polygon style="fill:#943EC7;" points="369.855,373.843 369.838,379.998 287.022,332.184 287.04,326.03 	"/>
	<polygon style="fill:#A258CB;" points="452.133,293.028 452.116,299.182 369.838,346.997 287.022,299.183 287.04,293.029 
		369.317,245.214 	"/>
	<polygon style="fill:#7F33AD;" points="452.133,293.028 452.116,299.182 369.838,346.997 369.855,340.842 	"/>
	<polygon style="fill:#943EC7;" points="369.855,340.842 369.838,346.997 287.022,299.183 287.04,293.029 	"/>
	<polygon style="fill:#E4CEF2;" points="452.133,260.027 452.116,266.182 369.838,313.997 287.022,266.183 287.04,260.029 
		369.317,212.214 	"/>
	<polygon style="fill:#B77FDA;" points="452.133,260.027 452.116,266.182 369.838,313.997 369.855,307.841 	"/>
	<polygon style="fill:#D5B4E9;" points="369.855,307.841 369.838,313.997 287.022,266.183 287.04,260.029 	"/>
	<polygon style="fill:#E4CEF2;" points="452.133,227.027 452.116,233.181 369.838,280.996 287.022,233.182 287.04,227.028 
		369.317,179.213 	"/>
	<polygon style="fill:#B77FDA;" points="452.133,227.027 452.116,233.181 369.838,280.996 369.855,274.841 	"/>
	<polygon style="fill:#D5B4E9;" points="369.855,274.841 369.838,280.996 287.022,233.182 287.04,227.028 	"/>
	<polygon style="fill:#E4CEF2;" points="452.133,194.026 452.116,200.181 369.838,247.996 287.022,200.182 287.04,194.027 
		369.317,146.213 	"/>
	<polygon style="fill:#B77FDA;" points="452.133,194.026 452.116,200.181 369.838,247.996 369.855,241.84 	"/>
	<polygon style="fill:#D5B4E9;" points="369.855,241.84 369.838,247.996 287.022,200.182 287.04,194.027 	"/>
	<polygon style="fill:#E4CEF2;" points="452.133,161.026 452.116,167.18 369.838,214.995 287.022,167.181 287.04,161.026 
		369.317,113.212 	"/>
	<polygon style="fill:#B77FDA;" points="452.133,161.026 452.116,167.18 369.838,214.995 369.855,208.84 	"/>
	<polygon style="fill:#D5B4E9;" points="369.855,208.84 369.838,214.995 287.022,167.181 287.04,161.026 	"/>
</g>
<g>
</g>
<g>
</g>
<g>
</g>
<g>
</g>
<g>
</g>
<g>
</g>
<g>
</g>
<g>
</g>
<g>
</g>
<g>
</g>
<g>
</g>
<g>
</g>
<g>
</g>
<g>
</g>
<g>
</g>
</svg>
